# xmcd
#
# Track frame offsets:
# 150
# 29597
# 66148
# 103013
# 159980
# 196108
# 234913
# 275167
# 313866
#
# Disc length: 4784 seconds
#
#
# Revision: 0
# Processed by: cddbd v1.5.2PL0 Copyright (c) Steve Scherf et al.
# Submitted via: FreeRIP 2.945 
#
DISCID=7812ae09
DTITLE=Herriot-J1977 - Wise-Wonderful04
DYEAR=1977
DGENRE=Jungle
TTITLE0=WW 0401
TTITLE1=WW 0402
TTITLE2=WW 0403
TTITLE3=WW 0404
TTITLE4=WW 0405
TTITLE5=WW 0406
TTITLE6=WW 0407
TTITLE7=WW 0408
TTITLE8=WW 0409
EXTD=All Things Wise and Wonderful 12 CDs\nby James Herriot - read by Christopher Timothy\nRennasance Audio - Jungle Country
EXTT0=
EXTT1=
EXTT2=
EXTT3=
EXTT4=
EXTT5=
EXTT6=
EXTT7=
EXTT8=
PLAYORDER=
